<?xml version="1.0" encoding="utf-8"?>
<!-- Generator: Adobe Illustrator 24.2.3, SVG Export Plug-In . SVG Version: 6.00 Build 0)  -->
<svg version="1.1" id="Layer_2" xmlns="http://www.w3.org/2000/svg" xmlns:xlink="http://www.w3.org/1999/xlink" x="0px" y="0px"
	 viewBox="0 0 379.8 139.8" style="enable-background:new 0 0 379.8 139.8;" xml:space="preserve">
<style type="text/css">
	.st0{fill:#5B056A;}
	.st1{fill:#FFFFFF;}
</style>
<g>
	<g>
		<path class="st0" d="M186.2,129.4c-9.2,0-16.5-7.4-16.5-16.9v-0.1c0-9.5,7.2-17,16.5-17c7.6,0,11.9,4.4,13,5.8l0.2,0.2l-2.4,2.6
			l-0.2-0.3c-3.3-3.2-6.8-4.8-10.7-4.8c-7,0-12.5,5.9-12.5,13.3v0.1c0,7.5,5.6,13.4,12.7,13.4c5.3,0,8.8-3,10.4-4.9l0.2-0.3l2.5,2.2
			l-0.2,0.2C197.9,125.3,193.3,129.4,186.2,129.4L186.2,129.4z"/>
		<path class="st0" d="M225.6,99.2c-2.2-2.2-5.6-3.4-10.1-3.4c-3.8,0-8,1-11.6,2.9l-0.3,0.1l1.4,3.1l0.3-0.2
			c3.4-1.7,6.5-2.5,9.8-2.5c6.7,0,10.1,3,10.1,9v0.1h-9.2c-9.7,0-14.7,3.6-14.7,10.8v0.1c0,6.8,6.2,10.4,12.3,10.4
			c6.3,0,10.1-3.2,11.6-5.1v4.4h3.6v-20.7C228.9,104.3,227.8,101.3,225.6,99.2z M225.3,115.8c0,7.2-5.7,10.4-11.4,10.4
			c-5.1,0-8.7-3-8.7-7.1c0-5.2,3.3-7.3,11.2-7.3h8.9V115.8z"/>
		<path class="st0" d="M278.8,96.2v5.6c-2.1-3.2-6.8-6.2-12.7-6.2c-3.9,0-7.7,1.5-10.6,4.2c-3.1,2.9-4.8,6.9-4.8,11.3v0.1
			c0,4.3,1.7,8.4,4.8,11.2c2.8,2.7,6.7,4.2,10.6,4.2c5.8,0,10.5-3.1,12.7-6.5v1.7c0,8.3-4.2,12.9-11.9,12.9c-5.4,0-9.2-2.1-12.4-4.4
			l-0.3-0.2l-2.1,3l0.2,0.2c0.6,0.5,6,5,14.5,5c4.7,0,8.8-1.5,11.6-4.4c2.8-2.9,4-6.6,4-12.2V96.2H278.8z M278.7,111.2
			c0,7.3-6.4,11.9-12.3,11.9c-6.6,0-11.7-5.2-11.7-11.9V111c0-6.8,4.9-11.8,11.7-11.8c6.1,0,12.3,4.4,12.3,11.9V111.2z"/>
		<path class="st0" d="M237.3,129.1h-3.8V96.2h3.8v7.8c2.9-5.3,8-8.4,13.9-8.1l0.3,0v3.9h-0.7c-6.7,0-13.6,4.8-13.6,15.7V129.1
			L237.3,129.1z"/>
		<path class="st0" d="M302.8,129.4c-9.3,0-16.6-7.4-16.6-16.9v-0.1c0-9.5,7.4-17,16.7-17c9.3,0,16.6,7.4,16.6,16.9v0.1
			C319.5,121.9,312.1,129.4,302.8,129.4z M302.8,99c-7,0-12.6,5.8-12.6,13.3v0.1c0,7.5,5.6,13.4,12.7,13.4c7,0,12.6-5.8,12.6-13.3
			v-0.1C315.5,104.9,309.9,99,302.8,99z"/>
	</g>
	<path class="st0" d="M18.5,82.2h-3.3L0,49.3h4.4l12.5,28l12.4-28h4.2L18.5,82.2L18.5,82.2z M40.8,45.6h-3.8v-4.4h3.8V45.6
		L40.8,45.6z M40.8,82.2h-3.8V49.3h3.8V82.2L40.8,82.2z M102.7,45.5H99v-4.4h3.8V45.5L102.7,45.5z M102.7,82.1H99V49.2h3.8V82.1
		L102.7,82.1z M197.2,82.1h-3.8V41.2h3.8V82.1L197.2,82.1z M284.3,45.5h-3.7v-4.4h3.7V45.5L284.3,45.5z M284.3,82.1h-3.7V49.2h3.7
		V82.1L284.3,82.1z M183.2,82.1h-3.7V41.2h3.7v8h6.4v3.5h-6.4V82.1L183.2,82.1z M270.3,82.1h-3.7V41.2h3.7v8h6.4v3.5h-6.4V82.1
		L270.3,82.1z M159.8,82.8c-6.1,0-12.3-3.6-12.3-10.4v-0.1c0-7.1,5-10.8,14.7-10.8h9.2v-0.1c0-6-3.4-9-10.1-9
		c-3.2,0-6.3,0.8-9.8,2.5l-0.3,0.2l-1.4-3.1l0.3-0.1c3.7-1.9,7.8-2.9,11.6-2.9c4.4,0,7.8,1.1,10.1,3.4c2.2,2.2,3.2,5.2,3.2,9.2v20.7
		h-3.6v-4.4C169.9,79.6,166.1,82.8,159.8,82.8L159.8,82.8z M151.4,72.2c0,4.1,3.7,7.1,8.7,7.1c5.7,0,11.4-3.2,11.4-10.4v-4h-8.9
		C154.6,65,151.4,67.1,151.4,72.2L151.4,72.2L151.4,72.2z M214,82.8c-6.1,0-12.3-3.6-12.3-10.4v-0.1c0-7.1,4.9-10.8,14.7-10.8h9.2
		v-0.1c0-6-3.4-9-10.1-9c-3.2,0-6.3,0.8-9.8,2.5l-0.3,0.2l-1.4-3.1l0.3-0.1c3.7-1.9,7.8-2.9,11.6-2.9c4.4,0,7.8,1.1,10.1,3.4
		c2.2,2.2,3.2,5.2,3.2,9.2v20.7h-3.6v-4.4C224.2,79.6,220.4,82.8,214,82.8L214,82.8z M205.6,72.2c0,4.1,3.7,7.1,8.7,7.1
		c5.7,0,11.4-3.2,11.4-10.4v-4h-8.9C208.9,65,205.6,67.1,205.6,72.2L205.6,72.2L205.6,72.2z M135.5,82.1h-3.8V64.7
		c0-3.8,0-12.6-9.7-12.6c-6.9,0-11,5.2-11,13.9v16h-3.7V49.2h3.7v5.5c1.3-2,4.8-6,11.4-6c8.4,0,13,5.1,13,14.3V82.1L135.5,82.1z
		 M262.1,82.1h-3.8V64.7c0-3.8,0-12.6-9.7-12.6c-6.9,0-11,5.2-11,13.9v16H234V49.2h3.7v5.5c1.3-2,4.8-6,11.4-6c8.4,0,13,5.1,13,14.3
		V82.1L262.1,82.1z M78.8,91.4c-8.5,0-13.9-4.5-14.5-5L64,86.3l2.1-3l0.3,0.2c3.3,2.3,7,4.4,12.4,4.4c7.6,0,11.9-4.6,11.9-12.9v-1.7
		c-2.2,3.4-6.9,6.5-12.7,6.5c-3.9,0-7.7-1.5-10.6-4.2c-3.1-2.9-4.8-6.9-4.8-11.2v-0.1c0-4.4,1.7-8.4,4.8-11.3
		c2.8-2.7,6.7-4.2,10.6-4.2c5.8,0,10.5,2.9,12.7,6.2v-5.6h3.7v25.7c0,5.5-1.2,9.3-4,12.2C87.6,89.9,83.5,91.4,78.8,91.4L78.8,91.4z
		 M78.3,52.3c-6.8,0-11.7,5-11.7,11.8v0.1c0,6.7,5.2,11.9,11.7,11.9c5.9,0,12.3-4.5,12.3-11.9v-0.1C90.7,56.8,84.4,52.3,78.3,52.3
		L78.3,52.3z M305,82.5c-9.2,0-16.5-7.4-16.5-16.9v-0.1c0-9.5,7.2-17,16.5-17c7.6,0,11.9,4.4,13,5.8l0.2,0.2l-2.4,2.6l-0.2-0.3
		c-3.3-3.2-6.8-4.8-10.7-4.8c-7,0-12.5,5.9-12.5,13.3v0.1c0,7.5,5.6,13.4,12.7,13.4c5.3,0,8.8-3,10.4-4.9l0.2-0.3l2.5,2.2l-0.2,0.2
		C316.7,78.4,312.1,82.5,305,82.5L305,82.5z M49.2,82.2h-3.8V49.3h3.8v7.8c2.9-5.3,8-8.4,13.9-8.1l0.3,0v3.9h-0.7
		c-6.7,0-13.6,4.8-13.6,15.7V82.2L49.2,82.2z"/>
	<g>
		<g>
			<defs>
				<path id="SVGID_1_" d="M379.8,0.8h-32.2c-10,0-12.4,1.6-16.4,6l-28.8,31.6c23-1.1,30.1,22,53.4,15.7L379.8,0.8z"/>
			</defs>
			<use xlink:href="#SVGID_1_"  style="overflow:visible;fill:#EB143A;"/>
			<clipPath id="SVGID_2_">
				<use xlink:href="#SVGID_1_"  style="overflow:visible;"/>
			</clipPath>
		</g>
		<path class="st1" d="M337.7,13.1c0,0,1.4-2.6,2.6-3.5c0,0,1.2-0.7,1.3-2c0,0,0.1-0.8-0.6-1.3c0,0-1.7-1.4-3.2,1
			c0,0-6.7,12.6-9,25.3c0,0-0.2,0.4-0.2-0.7c0,0-1-10.7-1-11.1c0-0.4,0-1.4-0.9-1.4c0,0-1.1-0.2-1.7,1.4l-3,7.3c0,0-0.5,0.9,0.3,1.3
			c0,0,0.9,0.5,1.5-0.7l1.4-2.9c0.3-0.6,0.5-0.5,0.5-0.5c0.2,0,0.2,0.6,0.2,0.6s1.2,14.3,1.2,14.4c0,0.1,0.1,1.3,1.1,1.3
			c0.7,0,0.9-0.8,1.1-1.4c0.1-0.7,1.4-7.5,3.6-14.8C334.3,20.5,336.1,15.6,337.7,13.1z M335.7,25.6c-1.4,0.3-1.6,1.9-1.6,1.9
			l-0.8,6.2c-0.1,1.2,1.5,0.3,1.5,0.3c0.7-0.4,0.8-1.2,0.8-1.2l0.3-1.6l0.8-4.2C336.9,25.3,335.7,25.6,335.7,25.6z M338.5,26.2
			c0,0-0.5,3.3-0.5,4c0,0-0.6,2.7,0.9,2.3c0,0,1.2-0.3,1.4-2l0.2-2.3c0,0,0.1-1.7,1.5-2.5c0,0,1.5-0.7,1-1.6c0,0-0.3-0.7-1.2-0.3
			c-0.7,0.3-1,0.3-1,0.3s-0.9,0.1-1,0.1C339.7,24.1,338.6,24.2,338.5,26.2z M337.3,22.5c0.9-0.7,0.6-1.3,0.6-1.3
			c-0.3-1-1.6,0.1-1.6,0.1c-1,0.7-0.7,1.5-0.7,1.5C336.2,23.5,337.3,22.5,337.3,22.5z M352.4,27c0,0,1.2-0.3,1.4-1.6
			c0,0,0.7-5,0.7-5.2c0-0.2,0.3-1.5-0.6-1.3c0,0-1.1,0.2-1.3,1.3l-0.9,4.9l-0.2,1C351.6,26.2,351.3,27.3,352.4,27z M355.2,16.6
			c0,0,1-0.8,0.5-1.4c0,0-0.4-0.6-1.6,0.2c0,0-1,0.9-0.4,1.5C353.8,16.8,354.4,17.4,355.2,16.6z M367.5,22.7
			c-0.2-0.4-0.8-0.7-1.9-0.2c-1.1,0.5-1.6,0.7-1.6,0.7c0,0-1.4,0.7-1.2-1.1l0.4-4.3c0,0,0.2-1.6-1.1-1.6c0,0-0.7-0.1-1.7,0.8
			c0,0-0.5,0.5-0.9,0.6c-0.2,0.1-0.5,0.1-0.9,0c-0.4-0.1-0.7-0.1-1,0c0,0-1.2,0.3-1.3,1.9l-0.5,3.8c0,0-0.3,1.5-0.1,1.8
			c0,0,0.1,0.6,1.2,0.2c0,0,0.9-0.3,1-1.9c0,0,0.3-3.1,0.7-3.7c0,0,0.5-1,1.3-1.4c0,0,1.1-0.5,1,0.4l-0.4,3.5c0,0-0.4,1.7,0.4,2
			c0,0,0.1,0-0.1,0.1c0,0-5.1,2.2-11.6,5.8c0.4-3.7,1.2-8.9,1.2-8.9c0.1-0.8-0.9-0.8-0.9-0.8c-1,0-1.1,1.1-1.2,1.7
			c-0.1,0.5-0.8,4.7-0.8,4.7c-0.3,1.9-1.5,1.8-1.5,1.8c-1.1,0.1-0.4-2.9-0.4-2.9c0.3-1.1,0.4-2,1.2-2.7c0.8-0.7,0.9-1.6,0.3-1.6
			c-1-0.1-2.1,1.1-2.1,1.1c-1.9,1.8-1.9,6.3-1.9,6.3c0,1.4,0.9,1.8,0.9,1.8c1.2,0.5,2.8-0.4,2.8-0.4c0.4-0.3,0.3,0.1,0.3,0.1
			l-0.1,1.1c-4.8,2.8-10.1,6.2-14.7,10.1c0,0-2.1,1.5-1.3,2.6c0.8,1.1,2,0.1,2.5-0.3c0,0,4.7-4.8,13.4-10.2l-0.3,3.6
			c-0.1,1.6-0.6,6.7-0.6,6.7c-0.2,2,0.1,2.4,0.2,2.5c0.2,0.2,1,0.9,1.8,0.3c1.1-0.7,0.5-2.3,0.4-3.1c-0.2-0.8-0.2-2.1-0.2-2.1
			c0.1-1,0.7-8.1,0.7-8.1c0-0.3,0-0.7,0.1-1.1c3.3-2,7.2-4,11.4-5.8c0,0,1.8-0.7,3.4-1.2c0,0,0.5-0.2,1.2-0.4c0.9-0.3,2-0.7,2.4-1.1
			C367.7,23.5,367.8,23.1,367.5,22.7z"/>
	</g>
</g>
</svg>
